<mxfile host="Electron" agent="Mozilla/5.0 (Windows NT 10.0; Win64; x64) AppleWebKit/537.36 (KHTML, like Gecko) draw.io/24.7.8 Chrome/128.0.6613.36 Electron/32.0.1 Safari/537.36" version="24.7.8">
  <diagram name="PÃ¡gina-1" id="srU0RSzaxZbcMEZgnoFO">
    <mxGraphModel dx="2074" dy="1244" grid="1" gridSize="10" guides="1" tooltips="1" connect="1" arrows="1" fold="1" page="0" pageScale="1" pageWidth="827" pageHeight="1169" background="#ffffff" math="0" shadow="0">
      <root>
        <mxCell id="0" />
        <mxCell id="1" parent="0" />
        <mxCell id="zwgBiLPagP9M-zmXSm6k-6" value="Teams" style="shape=image;verticalLabelPosition=bottom;labelBackgroundColor=default;verticalAlign=top;aspect=fixed;imageAspect=0;image=https://upload.wikimedia.org/wikipedia/commons/thumb/c/c9/Microsoft_Office_Teams_%282018%E2%80%93present%29.svg/2203px-Microsoft_Office_Teams_%282018%E2%80%93present%29.svg.png;fontStyle=1" parent="1" vertex="1">
          <mxGeometry x="592" y="45" width="61.42" height="57.12" as="geometry" />
        </mxCell>
        <mxCell id="Op2HMgMwXTmy5iIkCwYH-9" value="&lt;div&gt;Account 1&lt;/div&gt;&lt;div&gt;&lt;br&gt;&lt;/div&gt;" style="points=[[0,0],[0.25,0],[0.5,0],[0.75,0],[1,0],[1,0.25],[1,0.5],[1,0.75],[1,1],[0.75,1],[0.5,1],[0.25,1],[0,1],[0,0.75],[0,0.5],[0,0.25]];outlineConnect=0;gradientColor=none;html=1;whiteSpace=wrap;fontSize=12;fontStyle=0;container=1;pointerEvents=0;collapsible=0;recursiveResize=0;shape=mxgraph.aws4.group;grIcon=mxgraph.aws4.group_account;strokeColor=#CD2264;fillColor=none;verticalAlign=top;align=left;spacingLeft=30;fontColor=#CD2264;dashed=0;" parent="1" vertex="1">
          <mxGeometry x="-10" y="-15" width="554" height="209" as="geometry" />
        </mxCell>
        <mxCell id="Op2HMgMwXTmy5iIkCwYH-6" value="&lt;div&gt;EventBridge&lt;/div&gt;" style="sketch=0;points=[[0,0,0],[0.25,0,0],[0.5,0,0],[0.75,0,0],[1,0,0],[0,1,0],[0.25,1,0],[0.5,1,0],[0.75,1,0],[1,1,0],[0,0.25,0],[0,0.5,0],[0,0.75,0],[1,0.25,0],[1,0.5,0],[1,0.75,0]];outlineConnect=0;fontColor=#232F3E;fillColor=#E7157B;strokeColor=#ffffff;dashed=0;verticalLabelPosition=bottom;verticalAlign=top;align=center;html=1;fontSize=12;fontStyle=0;aspect=fixed;shape=mxgraph.aws4.resourceIcon;resIcon=mxgraph.aws4.eventbridge;" parent="Op2HMgMwXTmy5iIkCwYH-9" vertex="1">
          <mxGeometry x="307" y="58.5" width="61" height="61" as="geometry" />
        </mxCell>
        <mxCell id="Co3EL1TzmQDZ3PGxiRAP-1" value="Cloudtrail" style="sketch=0;points=[[0,0,0],[0.25,0,0],[0.5,0,0],[0.75,0,0],[1,0,0],[0,1,0],[0.25,1,0],[0.5,1,0],[0.75,1,0],[1,1,0],[0,0.25,0],[0,0.5,0],[0,0.75,0],[1,0.25,0],[1,0.5,0],[1,0.75,0]];points=[[0,0,0],[0.25,0,0],[0.5,0,0],[0.75,0,0],[1,0,0],[0,1,0],[0.25,1,0],[0.5,1,0],[0.75,1,0],[1,1,0],[0,0.25,0],[0,0.5,0],[0,0.75,0],[1,0.25,0],[1,0.5,0],[1,0.75,0]];outlineConnect=0;fontColor=#232F3E;fillColor=#E7157B;strokeColor=#ffffff;dashed=0;verticalLabelPosition=bottom;verticalAlign=top;align=center;html=1;fontSize=12;fontStyle=0;aspect=fixed;shape=mxgraph.aws4.resourceIcon;resIcon=mxgraph.aws4.cloudtrail;" parent="Op2HMgMwXTmy5iIkCwYH-9" vertex="1">
          <mxGeometry x="183" y="57.5" width="63" height="63" as="geometry" />
        </mxCell>
        <mxCell id="Co3EL1TzmQDZ3PGxiRAP-2" value="Lambda" style="sketch=0;points=[[0,0,0],[0.25,0,0],[0.5,0,0],[0.75,0,0],[1,0,0],[0,1,0],[0.25,1,0],[0.5,1,0],[0.75,1,0],[1,1,0],[0,0.25,0],[0,0.5,0],[0,0.75,0],[1,0.25,0],[1,0.5,0],[1,0.75,0]];outlineConnect=0;fontColor=#232F3E;fillColor=#ED7100;strokeColor=#ffffff;dashed=0;verticalLabelPosition=bottom;verticalAlign=top;align=center;html=1;fontSize=12;fontStyle=0;aspect=fixed;shape=mxgraph.aws4.resourceIcon;resIcon=mxgraph.aws4.lambda;" parent="Op2HMgMwXTmy5iIkCwYH-9" vertex="1">
          <mxGeometry x="449" y="61" width="56" height="56" as="geometry" />
        </mxCell>
        <mxCell id="Co3EL1TzmQDZ3PGxiRAP-4" value="" style="swimlane;startSize=0;strokeColor=#FF3399;" parent="Op2HMgMwXTmy5iIkCwYH-9" vertex="1">
          <mxGeometry x="16" y="45" width="102" height="88" as="geometry" />
        </mxCell>
        <mxCell id="Co3EL1TzmQDZ3PGxiRAP-8" value="" style="sketch=0;points=[[0,0,0],[0.25,0,0],[0.5,0,0],[0.75,0,0],[1,0,0],[0,1,0],[0.25,1,0],[0.5,1,0],[0.75,1,0],[1,1,0],[0,0.25,0],[0,0.5,0],[0,0.75,0],[1,0.25,0],[1,0.5,0],[1,0.75,0]];outlineConnect=0;fontColor=#232F3E;fillColor=#C925D1;strokeColor=#ffffff;dashed=0;verticalLabelPosition=bottom;verticalAlign=top;align=center;html=1;fontSize=12;fontStyle=0;aspect=fixed;shape=mxgraph.aws4.resourceIcon;resIcon=mxgraph.aws4.rds;" parent="Co3EL1TzmQDZ3PGxiRAP-4" vertex="1">
          <mxGeometry x="15" y="21" width="27" height="27" as="geometry" />
        </mxCell>
        <mxCell id="Co3EL1TzmQDZ3PGxiRAP-7" value="" style="sketch=0;points=[[0,0,0],[0.25,0,0],[0.5,0,0],[0.75,0,0],[1,0,0],[0,1,0],[0.25,1,0],[0.5,1,0],[0.75,1,0],[1,1,0],[0,0.25,0],[0,0.5,0],[0,0.75,0],[1,0.25,0],[1,0.5,0],[1,0.75,0]];outlineConnect=0;fontColor=#232F3E;fillColor=#ED7100;strokeColor=#ffffff;dashed=0;verticalLabelPosition=bottom;verticalAlign=top;align=center;html=1;fontSize=12;fontStyle=0;aspect=fixed;shape=mxgraph.aws4.resourceIcon;resIcon=mxgraph.aws4.ecs;" parent="Co3EL1TzmQDZ3PGxiRAP-4" vertex="1">
          <mxGeometry x="61" y="21" width="28" height="28" as="geometry" />
        </mxCell>
        <mxCell id="Co3EL1TzmQDZ3PGxiRAP-6" value="" style="sketch=0;points=[[0,0,0],[0.25,0,0],[0.5,0,0],[0.75,0,0],[1,0,0],[0,1,0],[0.25,1,0],[0.5,1,0],[0.75,1,0],[1,1,0],[0,0.25,0],[0,0.5,0],[0,0.75,0],[1,0.25,0],[1,0.5,0],[1,0.75,0]];outlineConnect=0;fontColor=#232F3E;fillColor=#ED7100;strokeColor=#ffffff;dashed=0;verticalLabelPosition=bottom;verticalAlign=top;align=center;html=1;fontSize=12;fontStyle=0;aspect=fixed;shape=mxgraph.aws4.resourceIcon;resIcon=mxgraph.aws4.ec2;" parent="Co3EL1TzmQDZ3PGxiRAP-4" vertex="1">
          <mxGeometry x="61" y="55" width="28" height="28" as="geometry" />
        </mxCell>
        <mxCell id="Co3EL1TzmQDZ3PGxiRAP-5" value="" style="sketch=0;points=[[0,0,0],[0.25,0,0],[0.5,0,0],[0.75,0,0],[1,0,0],[0,1,0],[0.25,1,0],[0.5,1,0],[0.75,1,0],[1,1,0],[0,0.25,0],[0,0.5,0],[0,0.75,0],[1,0.25,0],[1,0.5,0],[1,0.75,0]];outlineConnect=0;fontColor=#232F3E;fillColor=#7AA116;strokeColor=#ffffff;dashed=0;verticalLabelPosition=bottom;verticalAlign=top;align=center;html=1;fontSize=12;fontStyle=0;aspect=fixed;shape=mxgraph.aws4.resourceIcon;resIcon=mxgraph.aws4.s3;" parent="Co3EL1TzmQDZ3PGxiRAP-4" vertex="1">
          <mxGeometry x="13" y="52" width="29" height="29" as="geometry" />
        </mxCell>
        <mxCell id="Co3EL1TzmQDZ3PGxiRAP-10" style="edgeStyle=orthogonalEdgeStyle;rounded=0;orthogonalLoop=1;jettySize=auto;html=1;entryX=0;entryY=0.5;entryDx=0;entryDy=0;entryPerimeter=0;" parent="Op2HMgMwXTmy5iIkCwYH-9" source="Co3EL1TzmQDZ3PGxiRAP-4" target="Co3EL1TzmQDZ3PGxiRAP-1" edge="1">
          <mxGeometry relative="1" as="geometry" />
        </mxCell>
        <mxCell id="Co3EL1TzmQDZ3PGxiRAP-27" value="Event" style="edgeLabel;html=1;align=center;verticalAlign=middle;resizable=0;points=[];" parent="Co3EL1TzmQDZ3PGxiRAP-10" connectable="0" vertex="1">
          <mxGeometry x="-0.1077" y="1" relative="1" as="geometry">
            <mxPoint as="offset" />
          </mxGeometry>
        </mxCell>
        <mxCell id="Co3EL1TzmQDZ3PGxiRAP-11" style="edgeStyle=orthogonalEdgeStyle;rounded=0;orthogonalLoop=1;jettySize=auto;html=1;entryX=0;entryY=0.5;entryDx=0;entryDy=0;entryPerimeter=0;" parent="Op2HMgMwXTmy5iIkCwYH-9" source="Co3EL1TzmQDZ3PGxiRAP-1" target="Op2HMgMwXTmy5iIkCwYH-6" edge="1">
          <mxGeometry relative="1" as="geometry" />
        </mxCell>
        <mxCell id="Co3EL1TzmQDZ3PGxiRAP-12" style="edgeStyle=orthogonalEdgeStyle;rounded=0;orthogonalLoop=1;jettySize=auto;html=1;entryX=0;entryY=0.5;entryDx=0;entryDy=0;entryPerimeter=0;" parent="Op2HMgMwXTmy5iIkCwYH-9" source="Op2HMgMwXTmy5iIkCwYH-6" target="Co3EL1TzmQDZ3PGxiRAP-2" edge="1">
          <mxGeometry relative="1" as="geometry" />
        </mxCell>
        <mxCell id="Co3EL1TzmQDZ3PGxiRAP-29" value="Trigger" style="edgeLabel;html=1;align=center;verticalAlign=middle;resizable=0;points=[];" parent="Co3EL1TzmQDZ3PGxiRAP-12" connectable="0" vertex="1">
          <mxGeometry x="-0.2099" y="3" relative="1" as="geometry">
            <mxPoint as="offset" />
          </mxGeometry>
        </mxCell>
        <mxCell id="Op2HMgMwXTmy5iIkCwYH-21" value="Account 2" style="points=[[0,0],[0.25,0],[0.5,0],[0.75,0],[1,0],[1,0.25],[1,0.5],[1,0.75],[1,1],[0.75,1],[0.5,1],[0.25,1],[0,1],[0,0.75],[0,0.5],[0,0.25]];outlineConnect=0;gradientColor=none;html=1;whiteSpace=wrap;fontSize=12;fontStyle=0;container=1;pointerEvents=0;collapsible=0;recursiveResize=0;shape=mxgraph.aws4.group;grIcon=mxgraph.aws4.group_account;strokeColor=#CD2264;fillColor=none;verticalAlign=top;align=left;spacingLeft=30;fontColor=#CD2264;dashed=0;" parent="1" vertex="1">
          <mxGeometry x="709" y="-15" width="554" height="207" as="geometry" />
        </mxCell>
        <mxCell id="Co3EL1TzmQDZ3PGxiRAP-25" style="edgeStyle=orthogonalEdgeStyle;rounded=0;orthogonalLoop=1;jettySize=auto;html=1;" parent="Op2HMgMwXTmy5iIkCwYH-21" source="Op2HMgMwXTmy5iIkCwYH-25" target="Co3EL1TzmQDZ3PGxiRAP-15" edge="1">
          <mxGeometry relative="1" as="geometry" />
        </mxCell>
        <mxCell id="Co3EL1TzmQDZ3PGxiRAP-30" value="Trigger" style="edgeLabel;html=1;align=center;verticalAlign=middle;resizable=0;points=[];" parent="Co3EL1TzmQDZ3PGxiRAP-25" connectable="0" vertex="1">
          <mxGeometry x="-0.1343" y="-2" relative="1" as="geometry">
            <mxPoint as="offset" />
          </mxGeometry>
        </mxCell>
        <mxCell id="Op2HMgMwXTmy5iIkCwYH-25" value="&lt;div&gt;EventBridge&lt;/div&gt;" style="sketch=0;points=[[0,0,0],[0.25,0,0],[0.5,0,0],[0.75,0,0],[1,0,0],[0,1,0],[0.25,1,0],[0.5,1,0],[0.75,1,0],[1,1,0],[0,0.25,0],[0,0.5,0],[0,0.75,0],[1,0.25,0],[1,0.5,0],[1,0.75,0]];outlineConnect=0;fontColor=#232F3E;fillColor=#E7157B;strokeColor=#ffffff;dashed=0;verticalLabelPosition=bottom;verticalAlign=top;align=center;html=1;fontSize=12;fontStyle=0;aspect=fixed;shape=mxgraph.aws4.resourceIcon;resIcon=mxgraph.aws4.eventbridge;" parent="Op2HMgMwXTmy5iIkCwYH-21" vertex="1">
          <mxGeometry x="163" y="57.5" width="61" height="61" as="geometry" />
        </mxCell>
        <mxCell id="Co3EL1TzmQDZ3PGxiRAP-17" value="" style="swimlane;startSize=0;strokeColor=#FF3399;" parent="Op2HMgMwXTmy5iIkCwYH-21" vertex="1">
          <mxGeometry x="427" y="44" width="102" height="88" as="geometry" />
        </mxCell>
        <mxCell id="Co3EL1TzmQDZ3PGxiRAP-18" value="" style="sketch=0;points=[[0,0,0],[0.25,0,0],[0.5,0,0],[0.75,0,0],[1,0,0],[0,1,0],[0.25,1,0],[0.5,1,0],[0.75,1,0],[1,1,0],[0,0.25,0],[0,0.5,0],[0,0.75,0],[1,0.25,0],[1,0.5,0],[1,0.75,0]];outlineConnect=0;fontColor=#232F3E;fillColor=#C925D1;strokeColor=#ffffff;dashed=0;verticalLabelPosition=bottom;verticalAlign=top;align=center;html=1;fontSize=12;fontStyle=0;aspect=fixed;shape=mxgraph.aws4.resourceIcon;resIcon=mxgraph.aws4.rds;" parent="Co3EL1TzmQDZ3PGxiRAP-17" vertex="1">
          <mxGeometry x="15" y="21" width="27" height="27" as="geometry" />
        </mxCell>
        <mxCell id="Co3EL1TzmQDZ3PGxiRAP-19" value="" style="sketch=0;points=[[0,0,0],[0.25,0,0],[0.5,0,0],[0.75,0,0],[1,0,0],[0,1,0],[0.25,1,0],[0.5,1,0],[0.75,1,0],[1,1,0],[0,0.25,0],[0,0.5,0],[0,0.75,0],[1,0.25,0],[1,0.5,0],[1,0.75,0]];outlineConnect=0;fontColor=#232F3E;fillColor=#ED7100;strokeColor=#ffffff;dashed=0;verticalLabelPosition=bottom;verticalAlign=top;align=center;html=1;fontSize=12;fontStyle=0;aspect=fixed;shape=mxgraph.aws4.resourceIcon;resIcon=mxgraph.aws4.ecs;" parent="Co3EL1TzmQDZ3PGxiRAP-17" vertex="1">
          <mxGeometry x="61" y="21" width="28" height="28" as="geometry" />
        </mxCell>
        <mxCell id="Co3EL1TzmQDZ3PGxiRAP-20" value="" style="sketch=0;points=[[0,0,0],[0.25,0,0],[0.5,0,0],[0.75,0,0],[1,0,0],[0,1,0],[0.25,1,0],[0.5,1,0],[0.75,1,0],[1,1,0],[0,0.25,0],[0,0.5,0],[0,0.75,0],[1,0.25,0],[1,0.5,0],[1,0.75,0]];outlineConnect=0;fontColor=#232F3E;fillColor=#ED7100;strokeColor=#ffffff;dashed=0;verticalLabelPosition=bottom;verticalAlign=top;align=center;html=1;fontSize=12;fontStyle=0;aspect=fixed;shape=mxgraph.aws4.resourceIcon;resIcon=mxgraph.aws4.ec2;" parent="Co3EL1TzmQDZ3PGxiRAP-17" vertex="1">
          <mxGeometry x="61" y="55" width="28" height="28" as="geometry" />
        </mxCell>
        <mxCell id="Co3EL1TzmQDZ3PGxiRAP-21" value="" style="sketch=0;points=[[0,0,0],[0.25,0,0],[0.5,0,0],[0.75,0,0],[1,0,0],[0,1,0],[0.25,1,0],[0.5,1,0],[0.75,1,0],[1,1,0],[0,0.25,0],[0,0.5,0],[0,0.75,0],[1,0.25,0],[1,0.5,0],[1,0.75,0]];outlineConnect=0;fontColor=#232F3E;fillColor=#7AA116;strokeColor=#ffffff;dashed=0;verticalLabelPosition=bottom;verticalAlign=top;align=center;html=1;fontSize=12;fontStyle=0;aspect=fixed;shape=mxgraph.aws4.resourceIcon;resIcon=mxgraph.aws4.s3;" parent="Co3EL1TzmQDZ3PGxiRAP-17" vertex="1">
          <mxGeometry x="13" y="52" width="29" height="29" as="geometry" />
        </mxCell>
        <mxCell id="Co3EL1TzmQDZ3PGxiRAP-22" value="Services" style="text;html=1;align=center;verticalAlign=middle;resizable=0;points=[];autosize=1;strokeColor=none;fillColor=none;" parent="Co3EL1TzmQDZ3PGxiRAP-17" vertex="1">
          <mxGeometry x="19" y="-5" width="64" height="26" as="geometry" />
        </mxCell>
        <mxCell id="Co3EL1TzmQDZ3PGxiRAP-15" value="Lambda" style="sketch=0;points=[[0,0,0],[0.25,0,0],[0.5,0,0],[0.75,0,0],[1,0,0],[0,1,0],[0.25,1,0],[0.5,1,0],[0.75,1,0],[1,1,0],[0,0.25,0],[0,0.5,0],[0,0.75,0],[1,0.25,0],[1,0.5,0],[1,0.75,0]];outlineConnect=0;fontColor=#232F3E;fillColor=#ED7100;strokeColor=#ffffff;dashed=0;verticalLabelPosition=bottom;verticalAlign=top;align=center;html=1;fontSize=12;fontStyle=0;aspect=fixed;shape=mxgraph.aws4.resourceIcon;resIcon=mxgraph.aws4.lambda;" parent="Op2HMgMwXTmy5iIkCwYH-21" vertex="1">
          <mxGeometry x="40" y="60" width="56" height="56" as="geometry" />
        </mxCell>
        <mxCell id="Co3EL1TzmQDZ3PGxiRAP-16" value="Cloudtrail" style="sketch=0;points=[[0,0,0],[0.25,0,0],[0.5,0,0],[0.75,0,0],[1,0,0],[0,1,0],[0.25,1,0],[0.5,1,0],[0.75,1,0],[1,1,0],[0,0.25,0],[0,0.5,0],[0,0.75,0],[1,0.25,0],[1,0.5,0],[1,0.75,0]];points=[[0,0,0],[0.25,0,0],[0.5,0,0],[0.75,0,0],[1,0,0],[0,1,0],[0.25,1,0],[0.5,1,0],[0.75,1,0],[1,1,0],[0,0.25,0],[0,0.5,0],[0,0.75,0],[1,0.25,0],[1,0.5,0],[1,0.75,0]];outlineConnect=0;fontColor=#232F3E;fillColor=#E7157B;strokeColor=#ffffff;dashed=0;verticalLabelPosition=bottom;verticalAlign=top;align=center;html=1;fontSize=12;fontStyle=0;aspect=fixed;shape=mxgraph.aws4.resourceIcon;resIcon=mxgraph.aws4.cloudtrail;" parent="Op2HMgMwXTmy5iIkCwYH-21" vertex="1">
          <mxGeometry x="294" y="56.5" width="63" height="63" as="geometry" />
        </mxCell>
        <mxCell id="Co3EL1TzmQDZ3PGxiRAP-23" style="edgeStyle=orthogonalEdgeStyle;rounded=0;orthogonalLoop=1;jettySize=auto;html=1;entryX=1;entryY=0.5;entryDx=0;entryDy=0;entryPerimeter=0;" parent="Op2HMgMwXTmy5iIkCwYH-21" source="Co3EL1TzmQDZ3PGxiRAP-17" target="Co3EL1TzmQDZ3PGxiRAP-16" edge="1">
          <mxGeometry relative="1" as="geometry" />
        </mxCell>
        <mxCell id="Co3EL1TzmQDZ3PGxiRAP-36" value="Event" style="edgeLabel;html=1;align=center;verticalAlign=middle;resizable=0;points=[];" parent="Co3EL1TzmQDZ3PGxiRAP-23" connectable="0" vertex="1">
          <mxGeometry x="-0.0286" y="-1" relative="1" as="geometry">
            <mxPoint as="offset" />
          </mxGeometry>
        </mxCell>
        <mxCell id="Co3EL1TzmQDZ3PGxiRAP-24" style="edgeStyle=orthogonalEdgeStyle;rounded=0;orthogonalLoop=1;jettySize=auto;html=1;entryX=1;entryY=0.5;entryDx=0;entryDy=0;entryPerimeter=0;" parent="Op2HMgMwXTmy5iIkCwYH-21" source="Co3EL1TzmQDZ3PGxiRAP-16" target="Op2HMgMwXTmy5iIkCwYH-25" edge="1">
          <mxGeometry relative="1" as="geometry" />
        </mxCell>
        <mxCell id="Op2HMgMwXTmy5iIkCwYH-47" style="edgeStyle=orthogonalEdgeStyle;rounded=0;orthogonalLoop=1;jettySize=auto;html=1;" parent="1" source="Op2HMgMwXTmy5iIkCwYH-45" target="Op2HMgMwXTmy5iIkCwYH-9" edge="1">
          <mxGeometry relative="1" as="geometry" />
        </mxCell>
        <mxCell id="Op2HMgMwXTmy5iIkCwYH-48" style="edgeStyle=orthogonalEdgeStyle;rounded=0;orthogonalLoop=1;jettySize=auto;html=1;" parent="1" source="Op2HMgMwXTmy5iIkCwYH-45" target="Op2HMgMwXTmy5iIkCwYH-21" edge="1">
          <mxGeometry relative="1" as="geometry" />
        </mxCell>
        <mxCell id="Op2HMgMwXTmy5iIkCwYH-45" value="&lt;b&gt;Shared Account&amp;nbsp;&lt;/b&gt;" style="points=[[0,0],[0.25,0],[0.5,0],[0.75,0],[1,0],[1,0.25],[1,0.5],[1,0.75],[1,1],[0.75,1],[0.5,1],[0.25,1],[0,1],[0,0.75],[0,0.5],[0,0.25]];outlineConnect=0;gradientColor=none;html=1;whiteSpace=wrap;fontSize=12;fontStyle=0;container=1;pointerEvents=0;collapsible=0;recursiveResize=0;shape=mxgraph.aws4.group;grIcon=mxgraph.aws4.group_account;strokeColor=#CD2264;fillColor=none;verticalAlign=top;align=left;spacingLeft=30;fontColor=#CD2264;dashed=0;" parent="1" vertex="1">
          <mxGeometry x="498" y="-218" width="239" height="140" as="geometry" />
        </mxCell>
        <mxCell id="Op2HMgMwXTmy5iIkCwYH-38" value="&lt;div&gt;Cloudformation&lt;/div&gt;&lt;div&gt;&lt;br&gt;&lt;/div&gt;" style="sketch=0;points=[[0,0,0],[0.25,0,0],[0.5,0,0],[0.75,0,0],[1,0,0],[0,1,0],[0.25,1,0],[0.5,1,0],[0.75,1,0],[1,1,0],[0,0.25,0],[0,0.5,0],[0,0.75,0],[1,0.25,0],[1,0.5,0],[1,0.75,0]];points=[[0,0,0],[0.25,0,0],[0.5,0,0],[0.75,0,0],[1,0,0],[0,1,0],[0.25,1,0],[0.5,1,0],[0.75,1,0],[1,1,0],[0,0.25,0],[0,0.5,0],[0,0.75,0],[1,0.25,0],[1,0.5,0],[1,0.75,0]];outlineConnect=0;fontColor=#232F3E;fillColor=#E7157B;strokeColor=#ffffff;dashed=0;verticalLabelPosition=bottom;verticalAlign=top;align=center;html=1;fontSize=12;fontStyle=0;aspect=fixed;shape=mxgraph.aws4.resourceIcon;resIcon=mxgraph.aws4.cloudformation;" parent="Op2HMgMwXTmy5iIkCwYH-45" vertex="1">
          <mxGeometry x="42" y="50" width="51.5" height="51.5" as="geometry" />
        </mxCell>
        <mxCell id="Op2HMgMwXTmy5iIkCwYH-46" value="StackSet" style="sketch=0;outlineConnect=0;fontColor=#232F3E;gradientColor=none;fillColor=#E7157B;strokeColor=none;dashed=0;verticalLabelPosition=bottom;verticalAlign=top;align=center;html=1;fontSize=12;fontStyle=0;aspect=fixed;pointerEvents=1;shape=mxgraph.aws4.stack;" parent="Op2HMgMwXTmy5iIkCwYH-45" vertex="1">
          <mxGeometry x="142" y="48" width="56.96" height="55.5" as="geometry" />
        </mxCell>
        <mxCell id="Co3EL1TzmQDZ3PGxiRAP-9" value="Services" style="text;html=1;align=center;verticalAlign=middle;resizable=0;points=[];autosize=1;strokeColor=none;fillColor=none;" parent="1" vertex="1">
          <mxGeometry x="25" y="28" width="64" height="26" as="geometry" />
        </mxCell>
        <mxCell id="Co3EL1TzmQDZ3PGxiRAP-14" style="edgeStyle=orthogonalEdgeStyle;rounded=0;orthogonalLoop=1;jettySize=auto;html=1;entryX=0;entryY=0.5;entryDx=0;entryDy=0;" parent="1" source="Co3EL1TzmQDZ3PGxiRAP-2" target="zwgBiLPagP9M-zmXSm6k-6" edge="1">
          <mxGeometry relative="1" as="geometry" />
        </mxCell>
        <mxCell id="Co3EL1TzmQDZ3PGxiRAP-26" style="edgeStyle=orthogonalEdgeStyle;rounded=0;orthogonalLoop=1;jettySize=auto;html=1;" parent="1" source="Co3EL1TzmQDZ3PGxiRAP-15" target="zwgBiLPagP9M-zmXSm6k-6" edge="1">
          <mxGeometry relative="1" as="geometry" />
        </mxCell>
      </root>
    </mxGraphModel>
  </diagram>
</mxfile>
